PERFORMER "Gabriel Ananda"
TITLE "Essential Mix (2007-01-21)"
FILE "01-gabriel_ananda-essential_mix-sat-01-21-2007.mp3" MP3
  TRACK 01 AUDIO
    PERFORMER "Essential Mix"
    TITLE "Intro"
    INDEX 01 00:00:00
  TRACK 02 AUDIO
    PERFORMER "Mick Rubin"
    TITLE "Sommernachtstraum"
    INDEX 01 01:04:17
  TRACK 03 AUDIO
    PERFORMER "Super Flu"
    TITLE "Monaberry"
    INDEX 01 07:24:50
  TRACK 04 AUDIO
    PERFORMER "Cold"
    TITLE "Strobelight Network"
    INDEX 01 12:04:70
  TRACK 05 AUDIO
    PERFORMER "Depeche Mode"
    TITLE "Sinner Inside (Ricardo Villalobos Remix)"
    INDEX 01 16:21:21
  TRACK 06 AUDIO
    PERFORMER "Dennis Ferrer"
    TITLE "Transitions"
    INDEX 01 21:30:72
  TRACK 07 AUDIO
    PERFORMER "Marlow & Delhia"
    TITLE "Movin' (Matthias Tanzmann Remix)"
    INDEX 01 24:54:74
  TRACK 08 AUDIO
    PERFORMER "Pier Bucci"
    TITLE "Hay Consuelo (Samim Remix)"
    INDEX 01 28:28:41
  TRACK 09 AUDIO
    PERFORMER "Gabriel Ananda"
    TITLE "Wood"
    INDEX 01 33:12:41
  TRACK 10 AUDIO
    PERFORMER "Josh Wink"
    TITLE "Oakish"
    INDEX 01 39:48:50
  TRACK 11 AUDIO
    PERFORMER "Gabriel Ananda"
    TITLE "Untitled [White Label]"
    INDEX 01 46:09:28
  TRACK 12 AUDIO
    PERFORMER "Marco Bailey"
    TITLE "Passion Cocktail (Phil Kieran Remix)"
    INDEX 01 52:41:38
  TRACK 13 AUDIO
    PERFORMER "Christian Smith & John Selway"
    TITLE "Silver Bullet"
    INDEX 01 57:46:04
  TRACK 14 AUDIO
    PERFORMER "SCSI 9"
    TITLE "Railway Three"
    INDEX 01 62:20:20
  TRACK 15 AUDIO
    PERFORMER "Gabriel Ananda"
    TITLE "Untitled [White Label]"
    INDEX 01 66:35:12
  TRACK 16 AUDIO
    PERFORMER "Unknown Artist"
    TITLE "ID Bootleg [White Label]"
    INDEX 01 73:51:06
  TRACK 17 AUDIO
    PERFORMER "Gabriel Ananda"
    TITLE "Take Off (Live Mix)"
    INDEX 01 79:33:35
  TRACK 18 AUDIO
    PERFORMER "Moodyman"
    TITLE "Shades Of Jae"
    INDEX 01 85:27:69
  TRACK 19 AUDIO
    PERFORMER "Nass"
    TITLE "Teil 1"
    INDEX 01 87:19:56
  TRACK 20 AUDIO
    PERFORMER "Sian"
    TITLE "Stegosaurus"
    INDEX 01 94:13:09
  TRACK 21 AUDIO
    PERFORMER "Gabriel Ananda"
    TITLE "Lamakova"
    INDEX 01 98:12:05
  TRACK 22 AUDIO
    PERFORMER "Gabriel Ananda"
    TITLE "Take Off Sweep"
    INDEX 01 102:29:71
  TRACK 23 AUDIO
    PERFORMER "Daniel Mehlhart"
    TITLE "Am Anfang War Es Minimal"
    INDEX 01 109:02:04
  TRACK 24 AUDIO
    PERFORMER "Leonel Castillo"
    TITLE "Y El Viente Blanco"
    INDEX 01 115:14:19